<?xml version="1.0" encoding="utf-8"?>
<!-- Generator: Adobe Illustrator 23.0.3, SVG Export Plug-In . SVG Version: 6.00 Build 0)  -->
<svg version="1.1" id="Layer_1" xmlns="http://www.w3.org/2000/svg" xmlns:xlink="http://www.w3.org/1999/xlink" x="0px" y="0px"
	 viewBox="0 0 512 512" style="enable-background:new 0 0 512 512;" xml:space="preserve">
<style type="text/css">
	.st0{fill:#E0B394;}
	.st1{fill:#FC8A5E;}
	.st2{fill:#EA7653;}
	.st3{fill:#F7CBA4;}
	.st4{fill:#666666;}
	.st5{fill:#4D4D4D;}
</style>
<g>
	<g>
		<path class="st0" d="M33.9,213.9c-13.5-0.6-24.2-11.7-24.2-25.4c0-14,11.4-25.4,25.4-25.4c1.3,0,2.5,0.1,3.7,0.3"/>
		<path class="st0" d="M263.3,213.9c13.5-0.6,24.3-11.7,24.3-25.4c0-14-11.4-25.4-25.4-25.4c-1.3,0-2.5,0.1-3.7,0.3"/>
	</g>
	<path class="st1" d="M212.7,309.1c34.2,6.7,59.9,36.7,59.9,72.9v114.9H24.5V382c0-36.1,25.8-66.2,59.9-72.9H212.7z"/>
	<path class="st2" d="M116,309.1H84.4c-34.2,6.7-59.9,36.7-59.9,72.9v114.9h31.6V382C56.1,345.9,81.9,315.8,116,309.1z"/>
	<path class="st0" d="M217.8,310.3c0,0.2,0,0.3,0,0.4c0,38.2-31,69.2-69.2,69.2s-69.2-31-69.2-69.2c0-0.2,0-0.3,0-0.4"/>
	<path class="st3" d="M111.9,329l-44.7-32.5c-23.6-17.2-36.4-45.5-33.6-74.6l7.7-80.2c5.3-55.2,51.8-97.4,107.2-97.4l0,0
		c55.5,0,101.9,42.1,107.2,97.4l7.7,80.2c2.8,29.1-10,57.4-33.6,74.6L185.3,329C163.4,344.9,133.8,344.9,111.9,329z"/>
	<path class="st0" d="M61.4,237.8c-0.8,12.7,3.4,25.2,11.6,34.9l46.7,57.4c2.4,2.9,5.2,5.3,8.2,7.3c-5.6-2-11-4.8-16-8.4l-44.7-32.5
		c-23.6-17.2-36.4-45.5-33.6-74.6l7.7-80.2C46.6,87,92.2,45.1,146.9,44.3c-33.7,0.8-72,32.6-73.9,66.5L61.4,237.8z"/>
	<path class="st4" d="M296,142.5c0,0-48.1-57.3-109.9-32.3c-30.9,12.5-52.2,11.5-68.2,4.5c-0.4-0.2-0.7-0.3-1.1-0.5
		c-0.3-0.2-0.7-0.3-1-0.5c-3.2-1.6-6.3-3.4-9.1-5.4c0,0.1-0.1,0.2-0.1,0.3c-12.2,31.3-65.4,34.9-65.4,34.9s-23.8-38-10.8-67.4
		c10.4-23.3,37.8-48,84.6-57.2c12.2-2.4,25.7-3.8,40.6-3.8C227.4,15.2,296,63.1,296,142.5z"/>
	<path class="st5" d="M115,19c0,0-55.7,58.4-8.4,89.7c-12.2,31.3-65.4,34.9-65.4,34.9s-23.8-38-10.8-67.4
		C40.8,52.8,68.2,28.2,115,19z"/>
	<g>
		<rect x="224.6" y="443.5" class="st3" width="48.1" height="53.3"/>
		<rect x="24.5" y="443.5" class="st3" width="48.1" height="53.3"/>
	</g>
	<g>
		<rect x="24.5" y="443.5" class="st0" width="31.6" height="53.3"/>
	</g>
	<path d="M245.4,31.7c-4.4-2.9-10.4-1.7-13.3,2.8c-2.9,4.4-1.7,10.4,2.8,13.3C261.1,65,278,89.6,284,118.5c-4.4-3.3-9.4-6.7-15-9.9
		c-28.5-16.2-58.4-18.7-86.5-7.3c-39.5,16-59,7.2-70.2-0.8c-3.1-2.2-6.2-4.8-9.3-8c-3.8-3.8-9.9-3.8-13.6,0c-3.8,3.8-3.8,9.9,0,13.6
		c1.7,1.7,3.4,3.3,5.1,4.8c-10.1,14.1-33.9,20.3-47.9,22.3C41.3,122.8,31,98.6,39.3,80c18.1-40.8,74-55.2,116.4-55.2
		c20.1,0,40.2,4.1,58.2,11.7c4.9,2.1,10.6-0.2,12.6-5.1c2.1-4.9-0.2-10.6-5.1-12.6C201,10.1,178.3,5.5,155.6,5.5
		c-76.9,0-119.7,34.4-134,66.7c-12.9,28.9,4,63.3,9.7,73.5l-0.8,8.1C13.3,156,0,170.7,0,188.5c0,15.5,10,28.6,24,33.3
		c-2.9,32.1,11.5,63.7,37.6,82.6l2,1.5c-29.1,13.5-48.7,42.9-48.7,76.1v114.9c0,5.3,4.3,9.6,9.6,9.6h248.2c5.3,0,9.6-4.3,9.6-9.6
		v-115c0-16.5-4.8-32.5-13.9-46.2c-2.9-4.4-8.9-5.7-13.3-2.7c-4.4,2.9-5.7,8.9-2.7,13.3c7,10.6,10.7,22.9,10.7,35.6v51.9h-28.8
		v-36.1c0-5.3-4.3-9.6-9.6-9.6s-9.6,4.3-9.6,9.6v89.4h-133v-89.4c0-5.3-4.3-9.6-9.6-9.6s-9.6,4.3-9.6,9.6v36.1H34.1v-51.9
		c0-25.3,14.7-47.8,36.7-58.3c1.4,8.6,4.3,17,8.5,24.7c1.7,3.2,5.1,5,8.5,5c1.6,0,3.1-0.4,4.6-1.2c4.7-2.5,6.4-8.4,3.9-13.1
		c-2.3-4.2-4.1-8.8-5.3-13.4l15.2,11.1c12.7,9.2,27.5,13.8,42.4,13.8s29.7-4.6,42.4-13.8l15.3-11.1c-6.7,25.6-30,44.6-57.7,44.6
		c-13.6,0-26.5-4.5-37.1-13c-4.2-3.3-10.2-2.6-13.5,1.5c-3.3,4.2-2.6,10.2,1.5,13.5c13.9,11.1,31.3,17.2,49.1,17.2
		c39.1,0,71.6-28.6,77.8-65.9c2.8,1.4,5.6,2.9,8.2,4.7c1.7,1.1,3.5,1.7,5.4,1.7c3.1,0,6.1-1.5,8-4.2c3-4.4,1.8-10.4-2.6-13.4
		c-3.8-2.5-7.7-4.7-11.7-6.6l2-1.5c26.1-18.9,40.4-50.5,37.6-82.6c14-4.6,24-17.8,24-33.3c0-17.8-13.3-32.5-30.5-34.7l-1.1-11.2
		c-0.5-5.3-5.2-9.2-10.5-8.7s-9.2,5.2-8.7,10.5l7.6,78.5c2.5,25.5-8.9,50.8-29.7,65.9l-44.7,32.5c-18.6,13.5-43.6,13.5-62.1,0
		l-44.9-32.3c-20.8-15.1-32.1-40.3-29.7-65.9l6.8-70.7c14.8-2.2,45.4-9.3,60.3-30.4c21.7,11,47.8,10.1,79.4-2.7
		c22.6-9.2,45.9-7.2,69.3,5.9c18.2,10.2,29.5,23.5,29.6,23.6c1.9,2.2,4.6,3.4,7.4,3.4c1.1,0,2.2-0.2,3.3-0.6c3.8-1.4,6.3-5,6.3-9.1
		C305.5,96.5,284.2,57.2,245.4,31.7z M234.1,453.1h28.8v34.1h-28.8V453.1z M62.9,453.1v34.1H34.1v-34.1H62.9z M277.8,188.5
		c0,5.3-2.6,10-6.7,12.9l-2.6-27.2C274,176.6,277.8,182.1,277.8,188.5z M19.1,188.5c0-6.4,3.8-11.9,9.3-14.4l-2.6,27.3
		C21.8,198.5,19.1,193.8,19.1,188.5z"/>
	<path d="M90.4,207.1v13.1c0,5.3,4.3,9.6,9.6,9.6s9.6-4.3,9.6-9.6v-13.1c0-5.3-4.3-9.6-9.6-9.6S90.4,201.8,90.4,207.1z"/>
	<path d="M215.6,185.2c2.5,0,4.9-0.9,6.8-2.8c3.8-3.8,3.8-9.9,0-13.6c-6.8-6.8-15.9-10.6-25.5-10.6s-18.7,3.7-25.5,10.6
		c-3.8,3.8-3.8,9.9,0,13.6c3.8,3.8,9.9,3.8,13.6,0c3.2-3.2,7.4-4.9,11.9-4.9s8.7,1.7,11.9,4.9C210.7,184.2,213.1,185.2,215.6,185.2z
		"/>
	<path d="M118.7,185.2c2.5,0,4.9-0.9,6.8-2.8c3.8-3.8,3.8-9.9,0-13.6c-6.8-6.8-15.9-10.6-25.5-10.6s-18.7,3.7-25.5,10.6
		c-3.8,3.8-3.8,9.9,0,13.6c3.8,3.8,9.9,3.8,13.6,0c3.2-3.2,7.4-4.9,11.9-4.9s8.7,1.7,11.9,4.9C113.8,184.2,116.2,185.2,118.7,185.2z
		"/>
	<path d="M187.3,207.1v13.1c0,5.3,4.3,9.6,9.6,9.6c5.3,0,9.6-4.3,9.6-9.6v-13.1c0-5.3-4.3-9.6-9.6-9.6S187.3,201.8,187.3,207.1z"/>
	<path d="M148.5,297.1c10.1,0,20.3-3.9,28-11.6c3.8-3.8,3.8-9.9,0-13.6c-3.8-3.8-9.9-3.8-13.6,0c-7.9,7.9-20.8,7.9-28.7,0
		c-3.8-3.8-9.9-3.8-13.6,0s-3.8,9.9,0,13.6C128.2,293.2,138.4,297.1,148.5,297.1z"/>
	<path d="M156.7,250.5c5.3,0,9.6-4.3,9.6-9.6v-32.7c0-5.3-4.3-9.6-9.6-9.6c-5.3,0-9.6,4.3-9.6,9.6v23h-6.7c-5.3,0-9.6,4.3-9.6,9.6
		s4.3,9.6,9.6,9.6L156.7,250.5L156.7,250.5z"/>
</g>
</svg>
