<?xml version="1.0" encoding="utf-8"?>
<!-- Generator: Adobe Illustrator 23.0.3, SVG Export Plug-In . SVG Version: 6.00 Build 0)  -->
<svg version="1.1" id="Layer_1" xmlns="http://www.w3.org/2000/svg" xmlns:xlink="http://www.w3.org/1999/xlink" x="0px" y="0px"
	 viewBox="0 0 512 512" style="enable-background:new 0 0 512 512;" xml:space="preserve">
<style type="text/css">
	.st0{fill:#E0B394;}
	.st1{fill:#F4AAB6;}
	.st2{fill:#E28B9C;}
	.st3{fill:#F7CBA4;}
	.st4{fill:#F4D8A6;}
	.st5{fill:#D2B4EF;}
</style>
<g>
	<g>
		<path class="st0" d="M32.7,233.7c-12.8-0.6-22.9-11.1-22.9-24c0-13.3,10.7-24,24-24c1.2,0,2.4,0.1,3.5,0.3"/>
		<path class="st0" d="M270.1,233.7c12.8-0.6,22.9-11.1,22.9-24c0-13.3-10.8-24-24-24c-1.2,0-2.4,0.1-3.5,0.3"/>
	</g>
	<path class="st1" d="M212,335.9c32.3,6.3,56.7,34.7,56.7,68.9v93.2H34.1v-93.2c0-34.1,24.4-62.6,56.7-68.9H212z"/>
	<path class="st2" d="M120.6,335.9H90.8c-32.3,6.3-56.7,34.7-56.7,68.9v93.2H64v-93.2C64,370.6,88.3,342.1,120.6,335.9z"/>
	<path class="st0" d="M216.8,337c0,0.1,0,0.3,0,0.4c0,36.1-29.3,65.4-65.4,65.4c-36.1,0-65.4-29.3-65.4-65.4c0-0.1,0-0.3,0-0.4"/>
	<path class="st3" d="M113.7,350.4l-43.9-31.9c-25.4-18.4-38.9-49.1-35.5-80.2l5.6-51.1c6.3-56.8,54.3-99.7,111.4-99.7l0,0
		c57.1,0,105.1,43,111.4,99.7l5.6,51.1c3.4,31.2-10.1,61.8-35.5,80.2l-43.9,31.9C166.6,366.7,136.2,366.7,113.7,350.4z"/>
	<path class="st0" d="M151.4,87.4L151.4,87.4c-57.1,0-105.1,43-111.4,99.7l-5.6,51.1c-3.4,31.2,10.1,61.8,35.5,80.2l43.9,31.9
		c11.2,8.2,24.4,12.2,37.7,12.2c-10.1,0-20.2-4.1-28.7-12.2l-33.5-31.9c-19.4-18.4-29.7-49.1-27.1-80.2l4.3-51.1
		C71.1,130.4,107.8,87.4,151.4,87.4L151.4,87.4"/>
	<g>
		<path class="st4" d="M216.3,108.1c-6.8,11.5-18.9,28.8-37.5,43.9c-28.8,23.4-73.1,41.3-137,23.8c11-51.1,56.3-88.4,109.5-88.4
			C175.5,87.4,197.9,95.1,216.3,108.1z"/>
		<path class="st4" d="M263.3,192.1c-57.1,5.8-84-39.2-84.5-40.1c18.6-15.1,30.7-32.3,37.5-43.9c3.4,2.4,6.7,5.1,9.9,7.9
			c19.9,17.8,33.5,42.8,36.6,71.2L263.3,192.1z"/>
	</g>
	<g>
		<path class="st5" d="M220,141.9l18,40.6c5.5,12.5,22.5,14.3,30.6,3.3l20.9-28.6c8.1-11,1.1-26.7-12.5-28.1l-44.2-4.7l-30.5-22.2
			l-18-40.6c-5.5-12.5-22.5-14.3-30.6-3.3l-20.9,28.6c-8.1,11-1.1,26.7,12.5,28.1l44.2,4.7"/>
		<circle class="st5" cx="211.2" cy="122" r="21.8"/>
	</g>
	<path d="M197.1,219.1c-9.2,0-17.9,3.6-24.5,10.1c-3.8,3.8-3.8,9.9,0,13.6c3.8,3.8,9.9,3.8,13.6,0c2.9-2.9,6.7-4.5,10.8-4.5
		c4.1,0,7.9,1.6,10.8,4.5c1.9,1.9,4.3,2.8,6.8,2.8s4.9-0.9,6.8-2.8c3.8-3.8,3.8-9.9,0-13.6C215,222.7,206.3,219.1,197.1,219.1z"/>
	<path d="M129.9,242.9c3.8-3.8,3.8-9.9,0-13.6c-6.5-6.5-15.2-10.1-24.5-10.1c-9.2,0-17.9,3.6-24.5,10.1c-3.8,3.8-3.8,9.9,0,13.6
		c3.8,3.8,9.9,3.8,13.6,0c2.9-2.9,6.7-4.5,10.8-4.5s7.9,1.6,10.8,4.5c1.9,1.9,4.3,2.8,6.8,2.8S128.1,244.8,129.9,242.9z"/>
	<path d="M164.5,292.5c-7.3,7.3-19.1,7.3-26.4,0c-3.8-3.8-9.9-3.8-13.6,0c-3.8,3.8-3.8,9.9,0,13.6c7.2,7.2,16.7,11.1,26.8,11.1
		s19.7-3.9,26.8-11.1c3.8-3.8,3.8-9.9,0-13.6C174.3,288.7,168.3,288.7,164.5,292.5z"/>
	<path d="M144.8,269.7h13c5.3,0,9.6-4.3,9.6-9.6c0-5.3-4.3-9.6-9.6-9.6h-13c-5.3,0-9.6,4.3-9.6,9.6
		C135.1,265.4,139.5,269.7,144.8,269.7z"/>
	<path d="M284.6,179.9l12.5-17.1c5.8-8,6.9-18.2,2.9-27.2c-4-9.1-12.3-15.1-22.1-16.1c-5.3-0.6-10,3.3-10.6,8.6
		c-0.6,5.3,3.3,10,8.6,10.6c4.2,0.4,6,3.5,6.6,4.8c0.6,1.3,1.6,4.7-0.9,8.1l-20.9,28.6c-2.5,3.4-6,3.4-7.4,3.3
		c-1.4-0.1-4.8-0.9-6.6-4.8L232,145.4c3.3-2.9,6-6.6,7.8-10.6l9.8,1c0.3,0,0.7,0.1,1,0.1c4.9,0,9-3.7,9.6-8.6
		c0.6-5.3-3.3-10-8.6-10.6l-9.8-1c-3-14.3-15.6-25-30.7-25c-1.1,0-2.2,0.1-3.3,0.2L193,57.6c-4-9-12.3-15.1-22.1-16.1
		c-9.8-1.1-19.2,3.1-25,11.1L125,81.2c-5.8,8-6.9,18.2-2.9,27.2c4,9.1,12.3,15.1,22.1,16.1l36.1,3.8c0.5,2.5,1.3,4.9,2.4,7.1
		c-24.5,24-65.9,47.5-129.1,33.3c8.9-28.4,29.9-51.9,57.9-63.7c4.9-2.1,7.2-7.7,5.1-12.6c-2.1-4.9-7.7-7.2-12.6-5.1
		c-37.4,15.8-64.3,49.3-72,88.8C14.1,177,0,191.7,0,209.7C0,225,10.2,238,24.3,242c-2,32.8,13,64.8,39.8,84.2l7.6,5.5
		c-28.2,12.6-47.3,40.9-47.3,72.9v20.9c0,5.3,4.3,9.6,9.6,9.6c5.3,0,9.6-4.3,9.6-9.6v-20.9c0-23.5,13.5-44.3,33.8-54.3
		c6.2,35.2,37,62,73.9,62c30.2,0,57.4-18,69.1-45.8c2.1-4.9-0.2-10.5-5.1-12.6c-4.9-2.1-10.6,0.2-12.6,5.1
		c-8.8,20.7-28.9,34.1-51.4,34.1c-26.3,0-48.4-18.3-54.3-42.9l10.9,7.9c13,9.4,28.2,14.1,43.3,14.1c15.2,0,30.4-4.7,43.3-14.1
		l17.2-12.5c27.4,6.2,47.1,30.7,47.1,59v83.5h-26.2v-68.6c0-5.3-4.3-9.6-9.6-9.6c-5.3,0-9.6,4.3-9.6,9.6v68.6H89.1v-68.6
		c0-5.3-4.3-9.6-9.6-9.6s-9.6,4.3-9.6,9.6v68.6H43.6v-27.4c0-5.3-4.3-9.6-9.6-9.6s-9.6,4.3-9.6,9.6v37.1c0,5.3,4.3,9.6,9.6,9.6
		h234.6c5.3,0,9.6-4.3,9.6-9.6v-93.2c0-32-19.1-60.3-47.3-72.9l7.6-5.5c26.8-19.5,41.7-51.4,39.8-84.2c14.1-4,24.3-17,24.3-32.3
		C302.6,196.8,295.3,185.6,284.6,179.9z M26.4,222.1c-4.3-2.5-7.1-7.1-7.1-12.4c0-6.4,4.2-11.8,10-13.7L26.4,222.1z M211.1,109.9
		c6.7,0,12.1,5.4,12.1,12.1c0,6.7-5.4,12.1-12.1,12.1s-12.1-5.4-12.1-12.1C198.9,115.3,204.4,109.9,211.1,109.9z M182.4,109.2
		l-36.1-3.8c-4.2-0.4-6-3.5-6.6-4.8c-0.6-1.3-1.6-4.7,0.9-8.1l20.9-28.6c2.5-3.4,6-3.4,7.4-3.3c1.4,0.1,4.8,0.9,6.6,4.8l14.7,33.2
		C186.9,101.5,184.2,105.2,182.4,109.2z M227.2,310.7l-43.9,31.9c-19.2,13.9-44.9,13.9-64,0l-43.9-31.9
		c-22.5-16.4-34.6-43.7-31.6-71.4l5.6-51.1c0-0.2,0-0.4,0.1-0.6c14.8,3.3,28.6,4.8,41.4,4.8c36.3,0,64.5-11.9,85.7-26.9
		c5.6,6.8,14.8,16.2,28.1,23.9c5,2.9,11.4,0.8,13.7-4.5c2-4.5,0.2-9.8-4.1-12.2c-10.7-6.2-18.3-13.9-22.7-19.3
		c1.5-1.3,2.9-2.7,4.2-4c4.5,2.5,9.6,3.9,15.1,3.9c1.1,0,2.2-0.1,3.3-0.2l14.7,33.2c4,9,12.3,15.1,22.1,16.1c1,0.1,2,0.2,3,0.2
		c0.2,0,0.3,0,0.5,0l4,36.6C261.8,267,249.7,294.3,227.2,310.7z M276.2,222.1l-2.9-26.1c5.8,1.9,10,7.3,10,13.7
		C283.3,215,280.5,219.6,276.2,222.1z"/>
</g>
</svg>
