<?xml version="1.0" encoding="utf-8"?>
<!-- Generator: Adobe Illustrator 23.0.3, SVG Export Plug-In . SVG Version: 6.00 Build 0)  -->
<svg version="1.1" id="Layer_1" xmlns="http://www.w3.org/2000/svg" xmlns:xlink="http://www.w3.org/1999/xlink" x="0px" y="0px"
	 viewBox="0 0 900 344.2" style="enable-background:new 0 0 900 344.2;" xml:space="preserve">
<style type="text/css">
	.st0{clip-path:url(#SVGID_2_);}
	.st1{opacity:0.3;fill:#ACB7C6;enable-background:new    ;}
	.st2{fill:#38338E;}
	.st3{clip-path:url(#SVGID_4_);}
	.st4{opacity:0.2;fill:#373852;enable-background:new    ;}
	.st5{fill:#FFFFFF;}
	.st6{fill:url(#Path_1635_1_);}
	.st7{clip-path:url(#SVGID_6_);}
	.st8{opacity:0.2;fill:#CB4E79;enable-background:new    ;}
	.st9{fill:url(#Path_1638_1_);}
	.st10{clip-path:url(#SVGID_8_);}
</style>
<g>
	<defs>
		<path id="SVGID_1_" d="M0,269.2c229.8-68.2,211.1,81.9,427.9,52.2S639.6,126.6,900,158.7V0H0V269.2z"/>
	</defs>
	<clipPath id="SVGID_2_">
		<use xlink:href="#SVGID_1_"  style="overflow:visible;"/>
	</clipPath>
	<g id="Group_381" class="st0">
		<g id="Group_380" transform="translate(0.001 0)">
			<g id="Group_379">
				<g id="Group_373">
					<rect id="Rectangle_60" x="0" y="0" class="st2" width="900" height="1537"/>
					<g>
						<defs>
							<rect id="SVGID_3_" x="0" y="0" width="900" height="1537"/>
						</defs>
						<clipPath id="SVGID_4_">
							<use xlink:href="#SVGID_3_"  style="overflow:visible;"/>
						</clipPath>
						<g id="Group_372" class="st3">
							<path id="Path_1633" class="st4" d="M-456.8,963.3c10.8-121,68.5-232.1,157.2-303c46.6-37.2,104.2-64.1,165.5-58.3
								c64.9,6.1,125.8,48.1,173.2,99.3c47.5,51.2,84.3,111.8,124.9,169c132.3,186.7,308.3,340.5,505.2,441.5
								c79.7,40.9,163.8,73.5,249.5,83.4c205.3,23.5,403.5-96.4,489.2-284.3c44.2-97,60.3-212.5,31.9-322.6
								c-16.8-65.1-52.8-131.3-110.7-162.2c-87.4-46.7-187.4,4.7-246.2,76.9S988.1,867.7,923,933.7
								c-116.4,117.9-310.2,127.6-471.2,57.1c-161-70.4-292.6-208.6-396.6-359.1C-13.3,532.6-73.5,423-92.2,305.6
								c-8.2-51.4-7.8-105.4,13.3-149.6s66.6-76.2,115.4-68.6C98.6,97,144,165,157.5,230.2s4.3,130.8,7.2,196.4
								c4.7,110,45.7,223.3,120.9,306.7s185.6,133.1,287.5,119.9C675,840,763.2,759.6,780.1,653c9-56.4-1.2-116.5-20.6-172.7
								c-35.6-102.1-100-191.8-185.6-257.9c-68-52-146.2-85.6-215.8-135s-133.9-122-143.4-207.1c-8.7-77.4,33.2-151.5,96.4-184.4
								s144.2-26.6,212.2,8.8c30.2,15.7,58.9,37.5,77.9,67.2c40.2,62.8,27.8,141.6,25.3,213.8c-3.4,97.2,18.7,205,88.8,275.8
								c70.5,71.3,184.6,102.2,217.9,197.2c9.8,27.9,10.6,57.5,17.4,86.1c6.8,28.6,22.3,58.8,48.5,69.9c39.1,16.6,76.8-17.8,94-55.2
								c54.5-118.3,4.7-271.8-73.3-388.1s-182.5-212-258.5-329.7c-43.3-67-81.1-144.7-148.6-182.5c-71.8-40.3-155.3-22.6-227.8,2
								C5.2-209.9-383.1-44.5-543,338.3"/>
						</g>
					</g>
				</g>
				<g id="Group_378" transform="translate(13.967 17.52)">
					<path id="Path_1644" class="st5" d="M121.3,44.1c0,5-4.1,9.1-9.1,9.1c-5,0-9.1-4.1-9.1-9.1c0,0,0,0,0,0c0-5,4.1-9.1,9.1-9.1
						C117.3,35,121.3,39.1,121.3,44.1z"/>
					<path id="Path_1647" class="st5" d="M769.6,184.2c0,5-4.1,9.1-9.1,9.1c-5,0-9.1-4.1-9.1-9.1c0-5,4.1-9.1,9.1-9.1c0,0,0,0,0,0
						C765.5,175.1,769.6,179.2,769.6,184.2z"/>
					<path id="Path_1651" class="st5" d="M443.4,52.6c0,1-0.8,1.9-1.9,1.9c0,0,0,0,0,0c-1,0-1.9-0.8-1.9-1.9c0-1,0.8-1.9,1.9-1.9
						C442.5,50.8,443.4,51.6,443.4,52.6z"/>
					<path id="Path_1656" class="st5" d="M691.4,38.1c0,1-0.8,1.9-1.9,1.9c-1,0-1.9-0.8-1.9-1.9c0-1,0.8-1.9,1.9-1.9c0,0,0,0,0,0
						C690.5,36.3,691.4,37.1,691.4,38.1z"/>
					<path id="Path_1657" class="st5" d="M89.6,193.3c0,1-0.8,1.9-1.9,1.9c-1,0-1.9-0.8-1.9-1.9c0-1,0.8-1.9,1.9-1.9
						S89.6,192.2,89.6,193.3z"/>
					<circle id="Ellipse_160" class="st5" cx="202.1" cy="61" r="1.9"/>
					<path id="Path_1670" class="st5" d="M723.2,85c0.3,1-0.2,2-1.2,2.3c-1,0.3-2-0.2-2.3-1.2c-0.3-1,0.2-2,1.2-2.3c0,0,0,0,0,0
						C721.8,83.4,722.9,84,723.2,85C723.2,85,723.2,85,723.2,85z"/>
					<path id="Path_1672" class="st5" d="M829.8,219.7c0,2.3-1.9,4.2-4.2,4.2s-4.2-1.9-4.2-4.2s1.9-4.2,4.2-4.2
						S829.8,217.4,829.8,219.7z"/>
					<path id="Path_1684" class="st5" d="M801.6,56.8c0,2.3-1.9,4.2-4.2,4.2s-4.2-1.9-4.2-4.2s1.9-4.2,4.2-4.2
						S801.6,54.5,801.6,56.8z"/>
					<path id="Path_1685" class="st5" d="M219.5,98.8c0,2.3-1.9,4.2-4.2,4.2s-4.2-1.9-4.2-4.2s1.9-4.2,4.2-4.2
						S219.5,96.5,219.5,98.8z"/>
					<path id="Path_1686" class="st5" d="M47.4,150.5c0,2.3-1.9,4.2-4.2,4.2s-4.2-1.9-4.2-4.2s1.9-4.2,4.2-4.2
						S47.4,148.2,47.4,150.5z"/>
					<path id="Path_1688" class="st5" d="M341.7,141.2c0,2.3-1.9,4.2-4.2,4.2s-4.2-1.9-4.2-4.2s1.9-4.2,4.2-4.2
						S341.7,138.9,341.7,141.2z"/>
					<path id="Path_1691" class="st5" d="M507.7,331.8L507.7,331.8c0-9.9-8.1-18-18-18l0,0c9.9,0,18-8.1,18-18l0,0
						c0,9.9,8.1,18,18,18l0,0C515.7,313.8,507.7,321.9,507.7,331.8z"/>
					<path id="Path_1693" class="st5" d="M768.9,150.5L768.9,150.5c0-9.9-8.1-18-18-18l0,0c9.9,0,18-8.1,18-18l0,0
						c0,9.9,8.1,18,18,18l0,0C777,132.5,768.9,140.6,768.9,150.5z"/>
				</g>
			</g>
		</g>
	</g>
</g>
</svg>
