<?xml version="1.0" encoding="utf-8"?>
<!-- Generator: Adobe Illustrator 23.0.3, SVG Export Plug-In . SVG Version: 6.00 Build 0)  -->
<svg version="1.1" id="Layer_1" xmlns="http://www.w3.org/2000/svg" xmlns:xlink="http://www.w3.org/1999/xlink" x="0px" y="0px"
	 viewBox="0 0 900 344.2" style="enable-background:new 0 0 900 344.2;" xml:space="preserve">
<style type="text/css">
	.st0{clip-path:url(#SVGID_2_);}
	.st1{fill:#FFFFFC;}
	.st2{fill:#F5F5F5;}
	.st3{fill:#E8E8E8;}
</style>
<g>
	<g>
		<defs>
			<path id="SVGID_1_" d="M900,344.2V0H0v344.2"/>
		</defs>
		<clipPath id="SVGID_2_">
			<use xlink:href="#SVGID_1_"  style="overflow:visible;"/>
		</clipPath>
		<g id="Mask_Group_4" class="st0">
			<g id="Group_676" transform="translate(-25.531 -99.264)">
				<g id="Group_675">
					<g id="Group_674">
						<path id="Path_3245" class="st1" d="M914.4,323.4c-0.2,0.1-0.4,0.3-0.6,0.4C914.1,323.7,914.3,323.6,914.4,323.4z"/>
						<path id="Path_3246" class="st1" d="M938.9,161.1c-11.8-16.1-27.7-28.9-46-37.1c-2.9-1.3-5.7-2.4-8.6-3.4
							c2.6-20.8-0.1-41.9-7.7-61.4c-5.2-9.3-10.3-18.6-15.5-27.9C823.2-21.1,752.8-37.9,695.4-8.4c-0.9-2.7-1.9-5.3-3-7.9
							c-0.5-1.2-1.1-2.5-1.7-3.7c-6.7-12.1-13.4-24.2-20.1-36.3c-53-72.2-154.6-87.8-226.8-34.8c-26.5,19.4-46.4,46.4-57.2,77.4
							c-0.4-0.2-0.7-0.3-1.1-0.5c-1.9-1-3.9-2-5.8-3c-0.4-0.2-0.7-0.4-1.1-0.6c-10.8-3.2-21.7-6.3-32.5-9.5
							c-22.1-3.4-44.8-0.9-65.6,7.4C270-16.6,260.4-11.3,252-4.2l-23.3,22.2c-10.7,13.2-18.6,28.5-23.2,44.9
							c-6.6-0.6-13.3-0.6-19.9,0.1c-1.2,0-2.4,0-3.6,0c-7.4,1.9-14.9,3.7-22.3,5.6c-14.2,5.6-26.6,14.8-36.3,26.6
							c-4,6.5-8,13.1-12,19.6c-1.7,3.8-3.1,7.8-4.3,11.8c-6.5-0.2-13,0.1-19.4,0.8c-11.3,2.9-22.6,5.7-33.9,8.6
							c-69.4,27.5-103.3,106-75.8,175.4c8.6,21.6,22.5,40.6,40.6,55.2c9.9,6.1,19.9,12.2,29.8,18.3c22.3,9.9,46.8,13.7,71,10.8
							c11.3-2.9,22.6-5.7,33.9-8.6c13.5-5.4,26.1-12.9,37.2-22.3c48.6,41.5,120.9,38.9,166.3-6.1c8.7,15.3,20.2,28.9,33.8,40.1
							c23,16.1,39.5,26.2,67.9,30.2c36.3,5.4,73.2-3.7,102.9-25.3c8.4-5.4,15.8-12.2,22-20c25.1,31.8,65,48.3,105.3,43.5h0.6
							c9.7-2.5,19.5-4.9,29.3-7.4c18.6-7.4,35-19.4,47.6-35c5.3-8.6,10.5-17.1,15.8-25.7c3.4-7.8,6-16,7.7-24.3
							c10.8,5.4,22.3,9.1,34.2,11c33.2,1.8,30,1.8,61.7-7.1c8.5-2.4,29-16.1,28.7-15.6c16-11.8,28.6-27.6,36.7-45.7
							c4-9.9,7-20.2,8.9-30.7C965.6,217.5,956.5,184.9,938.9,161.1z"/>
					</g>
					<path id="Path_3247" class="st2" d="M242.5,62.1c-2.7-34.1,22.8-63.9,57-66.6c17.6-1.4,35,4.8,47.7,17.1
						c-20.2-4.6-39.9-0.2-58.9,8C269.1,29.4,253.1,43.9,242.5,62.1z"/>
					<path id="Path_3248" class="st2" d="M4.9,223.1c-2.7-34.1,22.9-63.9,57-66.6c17.6-1.4,35,4.8,47.7,17.1
						c-20.2-4.6-39.9-0.2-58.9,8C31.4,190.3,15.4,204.8,4.9,223.1z"/>
					<path id="Path_3249" class="st2" d="M730.4,22.8c25.8-22.5,64.9-19.9,87.4,5.9c11.6,13.3,17,30.9,14.8,48.5
						c-8.4-19-23.7-32.1-41.7-42.4C772.5,24.5,751.3,20.3,730.4,22.8z"/>
					<path id="Path_3250" class="st2" d="M479.7-66.8c19.4-28.5,57.1-43.2,90.7-35.3c33.6,7.9,60.7,38,65.2,72.2
						c-17.9-22.4-43-34.6-70.6-42.2S506.6-77.1,479.7-66.8z"/>
					<path id="Path_3251" class="st3" d="M416.8,276.9c-14.6,30.5-51.2,43.3-81.6,28.7c-15.7-7.5-27.5-21.4-32.3-38.2
						c15,13.9,34,19.9,54.4,22.3C377.9,291.8,398.8,287.3,416.8,276.9z"/>
					<path id="Path_3252" class="st3" d="M806,252.5c-4.1,33.6-34.6,57.5-68.1,53.4c-17.3-2.1-32.9-11.5-42.9-25.8
						c18.7,8.4,38.6,7.9,58.6,3.7C773.9,279.1,792.2,268.1,806,252.5z"/>
					<path id="Path_3253" class="st3" d="M674.1,125.9c-5.6,45.8-47.2,78.5-93.1,73c-23.7-2.9-45-15.7-58.6-35.3
						c25.5,11.5,52.7,10.9,80.1,5C629.9,162.8,655.4,146.8,674.1,125.9z"/>
					<path id="Path_3254" class="st3" d="M914.4,323.4c-0.2,0.1-0.4,0.3-0.6,0.4C914.1,323.7,914.3,323.6,914.4,323.4z"/>
					<path id="Path_3255" class="st3" d="M938.9,161.1c-6.9-9.4-15.2-17.7-24.6-24.6c1.2,6.8,2.4,13.5,3.6,20.3
						c0.1,0.8,0.1,1.5,0.2,2.3c2.2,31.8-10.9,64.6-32.3,87.8c-33.8,36.7-86.6,49.1-133.2,31.3c-16.2,45.6-59.1,79.8-109.8,81.8
						c-28,1-55.5-7.7-77.8-24.7c-21.4,21.6-50.2,34.4-80.6,35.7c-52.1,2.1-98.8-30.3-117.7-76.5c-41,52.5-116.8,61.8-169.3,20.7
						c-11.2-8.8-20.8-19.5-28.3-31.6c-15.3,24.6-38.9,42.9-66.5,51.7c-10.8,1.9-21.6,3.8-32.4,5.7c-11.3-0.6-22.9-0.6-33.9-3.1
						C10.8,332,1.2,324-19.2,308.5c-2-1.5-3.9-3.2-5.7-5c8.1,24.8,23.2,46.8,43.4,63.3c9.9,6.1,19.9,12.2,29.8,18.3
						c22.3,9.9,46.8,13.7,71,10.8c11.3-2.9,22.6-5.7,33.9-8.6c13.5-5.4,26.1-12.9,37.2-22.3c48.6,41.5,120.9,38.9,166.3-6.1
						c8.7,15.3,20.2,28.9,33.8,40.1c23,16.1,39.5,26.2,67.9,30.2c36.3,5.4,73.2-3.7,102.9-25.3c8.4-5.4,15.8-12.2,22-20
						c25.1,31.8,65,48.3,105.3,43.5h0.6c9.7-2.5,19.5-4.9,29.3-7.4c18.6-7.4,35-19.4,47.6-35c5.3-8.6,10.5-17.1,15.8-25.7
						c3.4-7.8,6-16,7.7-24.3c10.8,5.4,22.3,9.1,34.2,11c33.2,1.8,30,1.8,61.7-7.1c8.5-2.4,29-16.1,28.7-15.6
						c16-11.8,28.6-27.6,36.7-45.7c4-9.9,7-20.2,8.9-30.7C965.6,217.5,956.5,184.9,938.9,161.1z"/>
				</g>
			</g>
		</g>
	</g>
</g>
</svg>
