<?xml version="1.0" encoding="utf-8"?>
<!-- Generator: Adobe Illustrator 23.0.3, SVG Export Plug-In . SVG Version: 6.00 Build 0)  -->
<svg version="1.1" id="Layer_1" xmlns="http://www.w3.org/2000/svg" xmlns:xlink="http://www.w3.org/1999/xlink" x="0px" y="0px"
	 viewBox="0 0 792.6 245.6" style="enable-background:new 0 0 792.6 245.6;" xml:space="preserve">
<style type="text/css">
	.st0{fill:#61234E;}
</style>
<title>Asset 1</title>
<g>
	<path class="st0" d="M75.7,123v56.7h-9.3V123c0-16.9-9.8-27.7-26.8-27.7c-18.8,0-31.9,12.8-31.9,36.3v48.1h-9.1V88.6h9.1v17.3
		C14.3,93,25.2,86.6,40.3,86.6C62,86.6,75.7,101,75.7,123z"/>
	<path class="st0" d="M181.6,88.6h9.3v91.1h-9.3v-20.6c-7.8,14-21.9,22.6-39.2,22.6c-12.9,0-24.1-4.6-33.3-13.7
		c-9.3-9.3-13.9-20.6-13.9-33.9c0-13.3,4.6-24.6,13.9-33.7c9.3-9.3,20.4-13.9,33.3-13.9c17.3,0,31.3,8.6,39.2,22.6V88.6z M143.1,173
		c10.8,0,19.9-3.8,27.3-11.3c7.5-7.5,11.1-16.8,11.1-27.5c0-10.8-3.6-20-11.1-27.5c-7.5-7.5-16.6-11.3-27.3-11.3
		c-10.8,0-20,3.8-27.5,11.3c-7.5,7.5-11.1,16.8-11.1,27.5c0,10.8,3.6,20,11.1,27.5C123.1,169.1,132.4,173,143.1,173z"/>
	<path class="st0" d="M296,123v56.7h-9.3V123c0-16.9-9.8-27.7-26.8-27.7c-18.8,0-31.9,12.8-31.9,36.3v48.1h-9.1V52.1h9.1v53.8
		c6.6-12.9,17.5-19.3,32.6-19.3C282.3,86.6,296,101,296,123z"/>
	<path class="st0" d="M347.4,128.9c15.9,3.5,35.7,7.5,35.7,27c0,15.1-13.1,25.9-32.6,25.9c-17.5,0-30.1-8-34.6-20.2l7.8-4.6
		c3.5,10,13.1,16,26.8,16c13.7,0,23.5-6.2,23.5-17.1c0-8.9-8.6-14.2-19.5-16.6c-15.9-3.8-35.7-7.7-35.7-26.8
		c0-7.3,2.9-13.5,8.6-18.4c5.8-4.9,13.3-7.5,22.4-7.5c14.6,0,25.9,7.1,31,18.2l-7.7,4.4c-3.6-8.9-12.9-13.9-23.3-13.9
		c-12.4,0-21.9,6.7-21.9,17.1C327.9,121.4,336.5,126.1,347.4,128.9z"/>
	<path class="st0" d="M475.9,100.8c8.4,9.5,12.6,20.8,12.6,33.7c0,0.9-0.2,3.5-0.2,4.4h-82.6c1.1,10.2,5.1,18.4,12.2,24.8
		c7.1,6.2,16,9.3,26.4,9.3c14.6,0,25.9-6.6,31.5-16.6l8,4.7c-7.5,12.6-22.1,20.6-39.7,20.6c-14,0-25.5-4.4-34.4-13.3
		c-8.9-8.9-13.5-20.4-13.5-34.3c0-13.7,4.4-25,13.1-33.9c8.9-9.1,20.2-13.7,34.1-13.7C456.7,86.6,467.7,91.3,475.9,100.8z
		 M417.6,105c-6.9,6.4-10.9,14.8-11.8,25H479c-0.9-10.8-4.9-19.3-11.7-25.3c-6.7-6.2-14.6-9.3-23.9-9.3
		C433.1,95.3,424.5,98.6,417.6,105z"/>
	<path class="st0" d="M591.4,100.4c9.3,9.1,13.8,20.4,13.8,33.7c0,13.3-4.6,24.6-13.8,33.9c-9.1,9.1-20.2,13.7-33.3,13.7
		c-17.3,0-31.7-8.7-39.2-23.1v21.1h-9.1V52.1h9.1v57.6c7.5-14.4,21.9-23.1,39.2-23.1C571.2,86.6,582.3,91.1,591.4,100.4z M557.5,173
		c10.8,0,19.9-3.8,27.3-11.3c7.5-7.5,11.3-16.8,11.3-27.5c0-10.8-3.8-20-11.3-27.5c-7.5-7.5-16.6-11.3-27.3-11.3s-20,3.8-27.5,11.3
		c-7.5,7.5-11.1,16.8-11.1,27.5c0,10.8,3.6,20,11.1,27.5C537.5,169.1,546.8,173,557.5,173z"/>
	<path d="M666.7,58.9c-18-1.5-27.2,6.7-27.2,24.8v4.9h27.2v8.9h-27.2v82.2h-9.3V97.5h-15.7v-8.9h15.7v-4.9
		c0-22.8,12.9-35.2,36.4-33.5V58.9z"/>
	<path d="M697.5,59.2c0.4,9.5-14.9,9.5-14.6,0C682.5,50.1,697.8,50.1,697.5,59.2z M685.6,179.7V88.6h9.1v91.1H685.6z"/>
	<path d="M792.6,179.7h-12.4l-48.3-44.8v44.8h-9.1V52.1h9.1V130L778,88.6h12.8l-49,43.7L792.6,179.7z"/>
</g>
</svg>
