<svg id="Layer_1" data-name="Layer 1" xmlns="http://www.w3.org/2000/svg" viewBox="0 0 512 512"><defs><style>.cls-1{fill:#e6e6e6;}.cls-2{fill:#d3d3d3;}.cls-3{fill:#fd5d65;}.cls-4{fill:#e54e5c;}.cls-5{fill:#e0b394;}.cls-6{fill:#f7cba4;}.cls-7{fill:#d7e9f4;}</style></defs><title>ma</title><g id="Group_684" data-name="Group 684"><g id="Group_681" data-name="Group 681"><circle id="Ellipse_202" data-name="Ellipse 202" class="cls-1" cx="143.7" cy="78.4" r="50.5"/></g><path id="Path_3269" data-name="Path 3269" class="cls-2" d="M113.2,78.3a50.5,50.5,0,0,1,40.5-49.5,50.5,50.5,0,0,0-20,99.1,51.8,51.8,0,0,0,20,0A50.5,50.5,0,0,1,113.2,78.3Z"/><path id="Path_3270" data-name="Path 3270" class="cls-3" d="M205.7,337.6a71.9,71.9,0,0,1,58,70.5V503H23.6V408.1a71.9,71.9,0,0,1,58-70.5"/><path id="Path_3271" data-name="Path 3271" class="cls-4" d="M112.1,337.6H81.6a71.9,71.9,0,0,0-58,70.5V503H54.2V408.1A71.9,71.9,0,0,1,112.1,337.6Z"/><g id="Group_682" data-name="Group 682"><path id="Path_3272" data-name="Path 3272" class="cls-5" d="M32.6,247.5a24.6,24.6,0,0,1,1.2-49.1l3.6.3"/><path id="Path_3273" data-name="Path 3273" class="cls-5" d="M254.7,247.5a24.6,24.6,0,0,0-1.1-49.1l-3.6.3"/><path id="Path_3274" data-name="Path 3274" class="cls-5" d="M189.5,315.4v58.5a45.9,45.9,0,0,1-91.7,0V315.3Z"/></g><path id="Path_3275" data-name="Path 3275" class="cls-6" d="M108.1,353.7,64.9,322.3a79.6,79.6,0,0,1-32.5-72.1l7.5-77.7A104.1,104.1,0,0,1,143.7,78.4h0a104.1,104.1,0,0,1,103.7,94.2l7.5,77.6a79.7,79.7,0,0,1-32.5,72.2l-43.2,31.4A60.5,60.5,0,0,1,108.1,353.7Z"/><path id="Path_3276" data-name="Path 3276" class="cls-5" d="M59.3,265.5a48.3,48.3,0,0,0,11.2,33.8l45.2,55.5a38.2,38.2,0,0,0,7.9,7.1,62.3,62.3,0,0,1-15.5-8.2L64.9,322.3a79.6,79.6,0,0,1-32.5-72.1l7.5-77.7A104.2,104.2,0,0,1,142.1,78.4c-32.7.8-69.6,31.6-71.5,64.3Z"/><path id="Path_3277" data-name="Path 3277" class="cls-1" d="M248.7,185.5c-49.8,0-77.6-53-77.6-53s-23.3,43.1-103.5,42a257.8,257.8,0,0,1-27.7-1.9h0A104.3,104.3,0,0,1,141.2,78.4h2.5a104.2,104.2,0,0,1,103.8,94.2Z"/><path id="Path_3278" data-name="Path 3278" class="cls-2" d="M142.1,78.4c-32.6.8-69.6,31.5-71.5,64.3l-3,31.8a257.8,257.8,0,0,1-27.7-1.9h0A104.3,104.3,0,0,1,141.2,78.4Z"/><g id="Group_683" data-name="Group 683"><circle id="Ellipse_203" data-name="Ellipse 203" class="cls-7" cx="189.3" cy="243.7" r="29.5"/><circle id="Ellipse_204" data-name="Ellipse 204" class="cls-7" cx="98.1" cy="243.7" r="29.5"/></g><path id="Path_3279" data-name="Path 3279" d="M230.2,336.8a9.1,9.1,0,1,0-8.6,16,62.9,62.9,0,0,1,33,55.3v85.7H224.8V408.9a9.1,9.1,0,0,0-18.2,0h0v84.9H80.5V408.9a9.1,9.1,0,0,0-18.2,0h0v84.9H32.6v-34a9.1,9.1,0,0,0-18.2,0v43.1a9.1,9.1,0,0,0,9.1,9.1H263.6a9.1,9.1,0,0,0,9.1-9.1h0V408.1A80.9,80.9,0,0,0,230.2,336.8Z"/><path id="Path_3280" data-name="Path 3280" d="M199.1,373.2a9.1,9.1,0,1,0-18.1,0,37.4,37.4,0,0,1-74.8,2.7,12.2,12.2,0,0,1,0-2.7,9.1,9.1,0,0,0-18.2,0,55.6,55.6,0,0,0,111.1.1Z"/><path id="Path_3281" data-name="Path 3281" d="M258.2,189.6l-1.8-17.9a113,113,0,0,0-53.7-85.8A59.6,59.6,0,0,0,85.2,66.3a9.2,9.2,0,0,0,6.6,11.1,9.1,9.1,0,0,0,11-6.6c.1-.2.1-.5.2-.8a41.4,41.4,0,0,1,82,7.1A113.2,113.2,0,0,0,38.1,141.2a110.5,110.5,0,0,0-7.3,30.5L29,189.6a33.7,33.7,0,0,0-6.1,65.3,89.2,89.2,0,0,0,36.5,74.8l5,3.6a81.2,81.2,0,0,0-50,74.8v25.5a9.1,9.1,0,0,0,18.2,0V408.1a62.8,62.8,0,0,1,50.1-61.5l20,14.5a69.5,69.5,0,0,0,81.7,0l43.3-31.4a89.3,89.3,0,0,0,36.5-74.9,33.7,33.7,0,0,0-6-65.2ZM224,227a38.6,38.6,0,0,0-72.3,7.5H135.5A38.6,38.6,0,0,0,63.2,227l-18-15.5,2.8-29c71.8,6.5,107.4-18.7,122.2-34.3,11.1,15.7,34.9,42.2,70.1,45.9l1.7,17.4Zm-14.5,16.7a20.4,20.4,0,1,1-20.4-20.4h.1A20.3,20.3,0,0,1,209.5,243.7Zm-91.1,0a20.4,20.4,0,1,1-20.5-20.4H98a20.4,20.4,0,0,1,20.4,20.4ZM79.6,112.1a95.2,95.2,0,0,1,158.7,61.3l.2,2.1c-37.4-6.4-59.3-46.8-59.5-47.2a9,9,0,0,0-8-4.9h0a8.9,8.9,0,0,0-8,4.8c-.3.4-25,44.1-112.9,36.3A95.2,95.2,0,0,1,79.6,112.1ZM18.2,223a15.5,15.5,0,0,1,9-14.1l-2.6,26.6A15.3,15.3,0,0,1,18.2,223ZM217,315l-43.2,31.4a51.3,51.3,0,0,1-60.4,0L70.2,315a71,71,0,0,1-28.9-64L43,233.7l16.7,14.4a38.5,38.5,0,0,0,75.7,4.6h9.9v17.1h-6.7a9.1,9.1,0,1,0,0,18.2h15.8a9,9,0,0,0,9-9.1h0v-6.5a38.5,38.5,0,0,0,64-24.4l16.7-14.3,1.7,17.3A71.2,71.2,0,0,1,217,315Zm45.6-79.5L260,208.9a15.5,15.5,0,0,1,7.5,20.6A15.1,15.1,0,0,1,262.6,235.5Z"/><path id="Path_3282" data-name="Path 3282" d="M158,298.4a20.6,20.6,0,0,1-28.9,0,9.1,9.1,0,1,0-12.8,12.8h0a38.6,38.6,0,0,0,54.5,0A9.1,9.1,0,1,0,158,298.4Z"/><path id="Path_3283" data-name="Path 3283" d="M173.7,238.4a9.1,9.1,0,0,0,9.1,9.1h12.7a9.1,9.1,0,1,0,0-18.2H182.8a9.1,9.1,0,0,0-9.1,9.1Z"/><path id="Path_3284" data-name="Path 3284" d="M82.6,238.4a9.1,9.1,0,0,0,9.1,9.1h12.6a9.1,9.1,0,1,0,0-18.2H91.7a9.1,9.1,0,0,0-9.1,9.1Z"/></g></svg>