<svg xmlns="http://www.w3.org/2000/svg" xmlns:xlink="http://www.w3.org/1999/xlink" width="403" height="156" viewBox="0 0 403 156">
  <defs>
    <clipPath id="clip-path">
      <rect id="Rectangle_54" data-name="Rectangle 54" width="403" height="156" rx="4" fill="#fff"/>
    </clipPath>
  </defs>
  <g id="Mask_Group_4" data-name="Mask Group 4" clip-path="url(#clip-path)">
    <g id="Group_676" data-name="Group 676" transform="translate(-25.531 -99.264)">
      <g id="Group_675" data-name="Group 675">
        <g id="Group_674" data-name="Group 674">
          <path id="Path_3245" data-name="Path 3245" d="M944.095,630.1c-.09.063-.163.13-.253.2A2.464,2.464,0,0,0,944.095,630.1Z" transform="translate(-520.533 -430.46)" fill="#fffffc"/>
          <path id="Path_3246" data-name="Path 3246" d="M1250.948,696.935a51.79,51.79,0,0,0-20.576-16.616c-1.282-.561-2.571-1.056-3.87-1.515a56.071,56.071,0,0,0-3.465-27.508q-3.463-6.244-6.926-12.5a58.615,58.615,0,0,0-74.234-17.755c-.419-1.2-.85-2.392-1.335-3.558-.236-.558-.5-1.113-.777-1.654q-4.5-8.137-9.012-16.261a72.65,72.65,0,0,0-127.168,19.1c-.16-.07-.312-.156-.472-.233-.864-.445-1.724-.89-2.591-1.335-.166-.086-.332-.173-.5-.263q-7.28-2.128-14.56-4.265a56.289,56.289,0,0,0-29.392,3.319,37.774,37.774,0,0,0-12.729,7.022l-10.417,9.929a55.786,55.786,0,0,0-10.4,20.124,42.873,42.873,0,0,0-8.922.063c-.532.007-1.06.01-1.591.016q-4.993,1.256-9.982,2.525A39.929,39.929,0,0,0,885.795,667.5q-2.7,4.39-5.391,8.777a40.86,40.86,0,0,0-1.913,5.3,62.647,62.647,0,0,0-8.683.362q-7.6,1.918-15.2,3.843a60.489,60.489,0,0,0-15.779,103.247q6.682,4.1,13.361,8.208a60.91,60.91,0,0,0,31.784,4.856q7.6-1.923,15.2-3.843a61.117,61.117,0,0,0,16.662-9.972,55.04,55.04,0,0,0,74.479-2.727,63.207,63.207,0,0,0,15.151,17.935c10.315,7.215,17.686,11.736,30.412,13.537a62.6,62.6,0,0,0,46.055-11.317,41.071,41.071,0,0,0,9.872-8.939,52.232,52.232,0,0,0,47.157,19.5h.259q6.547-1.659,13.1-3.315a52.4,52.4,0,0,0,21.307-15.656q3.537-5.76,7.076-11.514a53.89,53.89,0,0,0,3.458-10.9,51.282,51.282,0,0,0,15.324,4.906c14.875.824,13.424.814,27.648-3.176,3.82-1.073,13-7.2,12.836-6.989a51.988,51.988,0,0,0,16.443-20.476,73.462,73.462,0,0,0,3.993-13.743C1262.9,722.2,1258.811,707.631,1250.948,696.935Z" transform="translate(-816.411 -570)" fill="#fffffc"/>
        </g>
        <path id="Path_3247" data-name="Path 3247" d="M853.4,615.69a27.743,27.743,0,0,1,46.872-22.17c-9.046-2.06-17.858-.076-26.389,3.6A45.246,45.246,0,0,0,853.4,615.69Z" transform="translate(-730.694 -533.045)" fill="#f5f5f5"/>
        <path id="Path_3248" data-name="Path 3248" d="M821.366,637.379a27.747,27.747,0,0,1,46.875-22.17c-9.049-2.06-17.859-.08-26.389,3.6A45.24,45.24,0,0,0,821.366,637.379Z" transform="translate(-805.082 -482.683)" fill="#f5f5f5"/>
        <path id="Path_3249" data-name="Path 3249" d="M919.106,594.265a27.745,27.745,0,0,1,45.782,24.343c-3.75-8.488-10.607-14.367-18.656-19.008A45.251,45.251,0,0,0,919.106,594.265Z" transform="translate(-577.966 -529.25)" fill="#f5f5f5"/>
        <path id="Path_3250" data-name="Path 3250" d="M885.32,589.2c8.68-12.779,25.578-19.356,40.6-15.789,15.028,3.548,27.186,17.011,29.209,32.309-8-10.042-19.234-15.507-31.634-18.891S897.338,584.617,885.32,589.2Z" transform="translate(-656.413 -564.314)" fill="#f5f5f5"/>
        <path id="Path_3251" data-name="Path 3251" d="M912.522,626.793a27.405,27.405,0,0,1-51.043-4.242c6.72,6.245,15.227,8.909,24.342,9.982A44.693,44.693,0,0,0,912.522,626.793Z" transform="translate(-711.769 -447.983)" fill="#e8e8e8"/>
        <path id="Path_3252" data-name="Path 3252" d="M964.046,620.54a27.408,27.408,0,0,1-49.712,12.344c8.368,3.764,17.28,3.558,26.26,1.651A44.735,44.735,0,0,0,964.046,620.54Z" transform="translate(-589.047 -452.653)" fill="#e8e8e8"/>
        <path id="Path_3253" data-name="Path 3253" d="M958.991,603.472a37.444,37.444,0,0,1-67.919,16.865c11.431,5.142,23.609,4.86,35.876,2.259S950.623,612.813,958.991,603.472Z" transform="translate(-643.058 -492.282)" fill="#e8e8e8"/>
        <path id="Path_3254" data-name="Path 3254" d="M944.095,630.1c-.09.063-.163.13-.253.2A2.464,2.464,0,0,0,944.095,630.1Z" transform="translate(-520.533 -430.46)" fill="#e8e8e8"/>
        <path id="Path_3255" data-name="Path 3255" d="M1248.876,615.9a52.135,52.135,0,0,0-11-11q.8,4.549,1.6,9.1c.026.339.046.674.07,1.013.993,14.221-4.893,28.94-14.45,39.3a54.543,54.543,0,0,1-59.651,14.005c-7.241,20.42-26.462,35.72-49.16,36.637a53.989,53.989,0,0,1-34.817-11.065,54.221,54.221,0,0,1-36.1,15.988c-23.346.94-44.254-13.57-52.7-34.249a54,54,0,0,1-88.468-4.85,54.415,54.415,0,0,1-29.757,23.144q-7.255,1.275-14.513,2.548c-5.073-.279-10.271-.282-15.184-1.405-11.467-2.624-15.779-6.212-24.907-13.158a25.052,25.052,0,0,1-2.531-2.245A61.056,61.056,0,0,0,836.756,708q6.682,4.1,13.36,8.208a60.911,60.911,0,0,0,31.784,4.856q7.6-1.923,15.2-3.843a61.118,61.118,0,0,0,16.662-9.972,55.04,55.04,0,0,0,74.479-2.727,63.206,63.206,0,0,0,15.151,17.935c10.315,7.215,17.686,11.736,30.412,13.537a62.6,62.6,0,0,0,46.055-11.318,41.065,41.065,0,0,0,9.872-8.939,52.232,52.232,0,0,0,47.157,19.5h.259q6.547-1.659,13.1-3.315a52.405,52.405,0,0,0,21.306-15.656q3.538-5.76,7.076-11.514a53.874,53.874,0,0,0,3.458-10.9,51.281,51.281,0,0,0,15.324,4.906c14.875.824,13.424.814,27.648-3.176,3.82-1.073,13-7.2,12.836-6.989a51.987,51.987,0,0,0,16.443-20.476,73.478,73.478,0,0,0,3.993-13.743C1260.832,641.16,1256.739,626.594,1248.876,615.9Z" transform="translate(-814.339 -488.962)" fill="#e8e8e8"/>
      </g>
    </g>
  </g>
</svg>
