<?xml version="1.0" encoding="utf-8"?>
<!-- Generator: Adobe Illustrator 23.0.3, SVG Export Plug-In . SVG Version: 6.00 Build 0)  -->
<svg version="1.1" id="Layer_1" xmlns="http://www.w3.org/2000/svg" xmlns:xlink="http://www.w3.org/1999/xlink" x="0px" y="0px"
	 viewBox="0 0 512 512" style="enable-background:new 0 0 512 512;" xml:space="preserve">
<style type="text/css">
	.st0{fill:#AD653D;}
	.st1{fill:#965535;}
	.st2{fill:#E0B394;}
	.st3{fill:#F7CBA4;}
	.st4{fill:#E6E6E6;}
</style>
<g id="Group_345" transform="translate(0 0)">
	<g id="Group_678" transform="translate(0)">
		<path id="Path_3256" class="st0" d="M81.2,295.3c-33.6,6.6-57.8,36-57.8,70.3v137.3h239.4V365.6c0-34.2-24.2-63.7-57.8-70.3"/>
		<path id="Path_3257" class="st1" d="M174.5,295.3h30.5c33.6,6.6,57.8,36,57.8,70.3v137.3h-30.5V365.6
			C232.3,331.4,208.1,301.9,174.5,295.3z"/>
		<g id="Group_677" transform="translate(0.933 13.415)">
			<path id="Path_3258" class="st2" d="M252.8,195.2c13.5-0.7,23.9-12.3,23.1-25.8c-0.7-12.9-11.3-23-24.2-23.1
				c-1.2,0-2.4,0.1-3.6,0.3"/>
			<path id="Path_3259" class="st2" d="M31.4,195.2c-13.5-0.7-23.9-12.3-23.1-25.8c0.7-12.9,11.3-23,24.2-23.1
				c1.2,0,2.4,0.1,3.6,0.3"/>
		</g>
		<path id="Path_3260" class="st3" d="M178.5,314.5l43.1-31.3c22.8-16.6,35.1-43.9,32.4-71.9l-7.5-77.4
			c-5.1-53.3-49.9-93.9-103.5-93.9l0,0c-53.5,0-98.3,40.7-103.5,93.9l-7.5,77.4c-2.7,28,9.6,55.4,32.4,71.9l43.1,31.3
			C128.7,329.9,157.3,329.9,178.5,314.5z"/>
		<path id="Path_3261" class="st2" d="M227.1,226.5c0.7,12.2-3.3,24.3-11.2,33.7l-45.1,55.4c-2.3,2.7-4.9,5.1-7.9,7
			c5.5-1.9,10.7-4.7,15.4-8.1l43.1-31.3c22.8-16.6,35.1-43.9,32.4-71.9l-7.5-77.4c-5.1-52.7-49-93.1-101.9-93.9
			c32.6,0.8,69.4,31.5,71.3,64.1L227.1,226.5z"/>
		<path id="Path_3262" class="st4" d="M42.5,279.9c5.8,4.3,12,7.9,18.5,10.8c28.5,12.8,68.1,15.9,82.1-20.5
			c14,36.5,53.6,33.3,82.1,20.5c6.5-2.9,12.7-6.5,18.5-10.8c-24.7,0-32.7-30-62.7-42.4c-9.7-4.9-21.2-4.7-30.7,0.4
			c-2.9,1.7-5.4,4.1-7.2,7c-1.9-3.1-4.6-5.6-7.8-7.3c-9.4-4.7-20.6-4.7-30,0C75.2,249.8,67.2,279.9,42.5,279.9z"/>
		<path id="Path_3263" class="st4" d="M61,290.6c0,0,0.1,45.9,43.2,60.6l5.3-16.8l33.6,39.9l33.6-39.9l5.3,16.8
			c43.1-14.7,43.2-60.6,43.2-60.6c-28.5,12.8-68.1,15.9-82.1-20.5C129,306.6,89.5,303.4,61,290.6z"/>
		<path id="Path_3264" d="M196.2,193.6c5-0.2,9.2,3.8,9.4,8.8c0.2,5-3.8,9.2-8.8,9.4c-0.2,0-0.4,0-0.6,0h-12.6
			c-5-0.2-8.9-4.4-8.8-9.4c0.2-4.8,4-8.6,8.8-8.8H196.2z"/>
		<path id="Path_3265" d="M72,177.6c-3.5-3.5-3.5-9.3,0-12.8c13.5-13.5,35.3-13.5,48.8,0c3.4,3.7,3.2,9.4-0.5,12.8
			c-3.5,3.2-8.8,3.2-12.3,0c-6.4-6.4-16.8-6.4-23.2,0c0,0,0,0,0,0C81.3,181.1,75.5,181.1,72,177.6z"/>
		<path id="Path_3266" d="M165.5,177.6c-3.5-3.5-3.5-9.3,0-12.8c0,0,0,0,0,0c13.5-13.5,35.3-13.5,48.8,0c3.4,3.7,3.2,9.4-0.5,12.8
			c-3.5,3.2-8.8,3.2-12.3,0c-6.4-6.4-16.8-6.4-23.2,0c0,0,0,0,0,0C174.7,181.1,169,181.1,165.5,177.6L165.5,177.6z"/>
		<path id="Path_3267" d="M102.7,193.6c5,0.2,8.9,4.4,8.8,9.4c-0.2,4.8-4,8.6-8.8,8.8H90.1c-5-0.2-8.9-4.4-8.8-9.4
			c0.2-4.8,4-8.6,8.8-8.8H102.7z"/>
		<path id="Path_3268" d="M0,184.1c0-16.7,12.4-30.9,28.9-33.2l0.5-5.3l-6.5,1.1c-4.9,0.8-9.6-2.6-10.3-7.6
			c-0.7-4.8,2.4-9.3,7.2-10.3l11.6-2c0.5-3.2,1.1-6.4,1.8-9.5l-3.4,0.6c-0.5,0.1-1,0.1-1.5,0.1c-5,0-9-4.1-9-9.1
			c0-4.4,3.2-8.2,7.6-8.9l12.9-2.1c25.4-57,92.2-82.7,149.2-57.3c4.7,2.1,9.3,4.5,13.7,7.3c4.3,2.5,5.8,8,3.3,12.4
			c-2.5,4.3-8,5.8-12.4,3.3c-0.2-0.1-0.4-0.2-0.5-0.3c-44.5-27.7-103-14.1-130.6,30.4c-0.2,0.4-0.4,0.7-0.7,1.1
			c4.9,0.8,8.3,5.4,7.6,10.3c-0.6,3.9-3.6,6.9-7.5,7.6l-9,1.5c-1,3.1-1.9,6.2-2.6,9.4c5-0.5,9.4,3.2,9.8,8.2c0.4,4.7-2.8,9-7.5,9.7
			l-4.8,0.9l-6.7,69.8c-1.9,18.9,4,37.8,16.4,52.3c3.5-3,6.8-6.2,9.9-9.6c9.4-11,21.1-19.8,34.3-25.8c7.7-3.4,16.1-4.7,24.4-3.8
			v-22.4c-0.2-5,3.8-9.2,8.8-9.4c5-0.2,9.2,3.8,9.4,8.8c0,0.2,0,0.4,0,0.6v28c0.5-0.3,1-0.6,1.4-0.9c12-6.6,26.4-6.9,38.7-1
			c13.2,6,24.9,14.8,34.3,25.8c3.7,3.8,6.9,7.1,9.9,9.6c12.3-14.5,18.3-33.4,16.4-52.3l-6.7-69.8l-4.8-0.9
			c-4.9-0.8-8.3-5.5-7.4-10.4c0.8-4.7,5-7.9,9.7-7.5c-0.7-3.2-1.6-6.3-2.6-9.4l-9-1.5c-4.9-0.8-8.3-5.4-7.5-10.4
			c0.6-3.9,3.7-6.9,7.6-7.5c-4-6.6-8.8-12.8-14.3-18.2c-3.5-3.6-3.3-9.4,0.3-12.8c3.5-3.3,8.9-3.3,12.5,0
			c9.9,9.9,17.9,21.5,23.5,34.2l13,2.1c5,0.6,8.5,5.1,8,10c-0.6,5-5.1,8.5-10,8c-0.3,0-0.5-0.1-0.8-0.1l-3.4-0.6
			c0.8,3.1,1.4,6.3,1.9,9.5l11.6,2c4.9,0.9,8.2,5.6,7.3,10.5c-0.8,4.3-4.5,7.4-8.9,7.5c-0.5,0-1.1,0-1.6-0.1l-6.5-1.1l0.5,5.3
			c18.4,2.6,31.1,19.6,28.5,38c-1.8,12.6-10.5,23.1-22.6,27.1c0.7,19.8-5.3,39.3-17,55.3c4.8,1.5,7.4,6.6,5.9,11.3
			c-0.6,1.8-1.7,3.4-3.2,4.5c-4.8,3.6-9.9,6.7-15.2,9.4c0,0.2,0,0.4-0.1,0.6c23.7,14.7,38.1,40.6,38.1,68.5v137.3
			c0,5-4.1,9.1-9.1,9.1l0,0H23.4c-5,0-9.1-4.1-9.1-9.1l0,0V365.6c0-15.8,4.6-31.3,13.3-44.4c2.7-4.2,8.2-5.5,12.5-2.9
			c4.2,2.7,5.5,8.2,2.9,12.5c-0.1,0.1-0.2,0.3-0.3,0.4c-6.8,10.2-10.4,22.2-10.3,34.4v128.3h29.7V366.4c0.2-5,4.4-8.9,9.4-8.8
			c4.8,0.2,8.6,4,8.8,8.8v127.4H134V377.6l-20.8-24.7l-0.3,1c-1.5,4.8-6.6,7.4-11.3,6c-0.1,0-0.2,0-0.2-0.1
			c-21-7.1-37.5-23.6-44.7-44.7c-4.9,1-9.7-2.2-10.6-7.1c-0.7-3.6,0.8-7.2,3.8-9.3c0.8-0.6,1.7-1.1,2.5-1.6c0-0.2,0-0.4-0.1-0.6
			c-5.3-2.7-10.4-5.8-15.2-9.4c-4-3-4.8-8.7-1.8-12.7c1.1-1.5,2.7-2.6,4.5-3.2c-11.8-16-17.8-35.4-17-55.3
			C9.1,211.3,0,198.5,0,184.1z M205.7,267.4c-7.7-9.1-17.4-16.5-28.2-21.6c-7.1-3.7-15.6-3.7-22.7-0.1c-1.6,0.9-3,2.3-4,3.9
			c-1.7,2.7-4.6,4.3-7.7,4.3l0,0c-3.1,0-6-1.6-7.7-4.2c-1.1-1.8-2.6-3.2-4.5-4.2c-7.1-3.3-15.3-3.2-22.2,0.4
			c-10.8,5.1-20.5,12.5-28.2,21.6c-4.9,5.5-10.4,10.4-16.3,14.7l0.6,0.3c15.7,8.2,34,10,51,5c9-3.8,15.8-11.2,18.9-20.5
			c1.3-3.5,4.7-5.8,8.5-5.8l0,0c3.8,0,7.1,2.3,8.5,5.8c3,9.2,9.9,16.7,18.9,20.5c17,5.1,35.3,3.3,51-5l0.6-0.3
			C216.1,277.8,210.7,272.9,205.7,267.4L205.7,267.4z M268.1,184.1c0-6-3.5-11.5-8.9-14l2.6,26.5
			C265.8,193.8,268.2,189.1,268.1,184.1L268.1,184.1z M206,493.8V366.4c0.2-5,4.4-8.9,9.4-8.8c4.8,0.2,8.6,4,8.8,8.8v127.4h29.7
			V365.6c0-19.5-9-37.9-24.5-49.7c-7.3,20.7-23.6,36.8-44.4,43.8c-4.7,1.6-9.9-0.9-11.5-5.6c0-0.1-0.1-0.2-0.1-0.2l-0.3-1
			l-20.8,24.7v116.3L206,493.8z M98.6,338.8l2.2-7.2c1.5-4.8,6.6-7.4,11.4-5.9c1.6,0.5,3.1,1.5,4.2,2.8l26.7,31.7l26.7-31.7
			c3.2-3.8,8.9-4.3,12.8-1.1c1.3,1.1,2.3,2.6,2.8,4.2l2.3,7.2c13.2-7.3,22.8-19.8,26.3-34.5c-16.4,5.5-34.1,5.4-50.4-0.3
			c-8.1-3.3-15.1-8.6-20.4-15.5c-5.3,6.9-12.4,12.2-20.4,15.5c-7.6,3-15.7,4.5-23.8,4.4c-9-0.1-17.9-1.5-26.5-4.1
			C76,319,85.5,331.5,98.6,338.8z M24.5,196.6l2.6-26.5c-7.7,3.6-11.1,12.8-7.5,20.5C20.7,193,22.4,195.1,24.5,196.6z"/>
		<circle id="Ellipse_199" cx="117.4" cy="395.1" r="9.1"/>
		<circle id="Ellipse_200" cx="117.4" cy="432.3" r="9.1"/>
		<circle id="Ellipse_201" cx="117.4" cy="469.4" r="9.1"/>
	</g>
</g>
</svg>
